<?xml version="1.0" standalone="no"?>
<!DOCTYPE svg PUBLIC "-//W3C//DTD SVG 20010904//EN"
 "http://www.w3.org/TR/2001/REC-SVG-20010904/DTD/svg10.dtd">
<svg version="1.0" xmlns="http://www.w3.org/2000/svg"
 width="300.000000pt" height="300.000000pt" viewBox="0 0 300.000000 300.000000"
 preserveAspectRatio="xMidYMid meet">
<metadata>
Created by potrace 1.10, written by Peter Selinger 2001-2011
</metadata>
<g transform="translate(0.000000,300.000000) scale(0.100000,-0.100000)"
fill="#758CA3" stroke="none">
<path d="M1795 2736 c-346 -66 -599 -377 -583 -715 l3 -70 -345 -3 -345 -3
-55 -26 c-72 -34 -136 -97 -168 -167 l-27 -57 0 -470 0 -470 28 -57 c35 -71
110 -140 183 -167 44 -17 78 -21 175 -21 l121 0 134 -127 c75 -71 142 -130
150 -131 9 -2 24 4 35 14 17 15 19 31 19 131 l0 113 308 0 307 0 60 29 c69 32
136 96 165 156 33 69 40 141 38 386 l-3 234 95 12 95 12 120 -119 c94 -94 126
-120 147 -120 44 0 49 24 48 220 l-2 180 47 52 c198 224 241 538 111 803 -88
177 -261 316 -461 370 -82 23 -309 29 -400 11z m379 -106 c111 -28 189 -74
277 -160 242 -239 247 -611 12 -861 l-63 -66 0 -142 0 -142 -89 93 -88 93 -72
-13 c-39 -6 -125 -12 -190 -12 -210 0 -346 53 -476 184 -120 121 -178 262
-178 431 0 169 58 310 178 431 132 134 260 183 481 183 99 1 150 -4 208 -19z
m-568 -13 c-122 -76 -222 -184 -281 -302 -20 -38 -33 -59 -29 -45 30 114 155
266 277 336 43 24 68 33 33 11z m889 -113 c45 -46 85 -97 108 -142 44 -82 50
-111 8 -35 -64 116 -155 215 -248 270 -60 35 -54 40 8 6 29 -15 84 -60 124
-99z m-1220 -581 c25 -174 151 -360 303 -450 59 -35 53 -40 -8 -7 -107 58
-222 197 -270 323 -21 57 -66 111 -92 111 -10 0 42 68 53 69 4 1 10 -20 14
-46z m-855 -103 c-28 -27 -62 -73 -75 -102 -14 -29 -25 -47 -25 -40 0 39 58
126 114 170 46 36 41 26 -14 -28z m834 -32 c87 -249 314 -424 599 -463 l47 -6
0 -263 0 -262 -27 -55 c-31 -60 -92 -112 -151 -129 -22 -6 -166 -10 -353 -10
-377 0 -355 7 -346 -115 l5 -75 -100 95 -101 95 -127 0 c-70 0 -142 5 -161 12
-61 20 -114 64 -144 120 l-30 53 -3 418 c-3 468 -1 489 62 563 67 78 68 78
451 84 187 3 344 5 348 5 4 0 19 -30 31 -67z m1358 -65 c-11 -21 -42 -67 -68
-102 -104 -137 -94 -104 -94 -298 0 -95 -4 -173 -8 -173 -5 0 -55 47 -112 105
-57 57 -117 111 -134 119 -29 15 -30 16 -7 16 17 0 48 -23 102 -75 45 -44 85
-75 97 -75 41 0 52 35 52 162 l0 118 48 53 c57 63 108 134 122 173 6 15 13 24
16 21 3 -3 -3 -22 -14 -44z m-628 -349 c13 -5 12 -11 -10 -40 l-26 -33 -24 28
c-13 16 -24 34 -24 40 0 12 58 15 84 5z m-1554 -747 c40 -36 47 -46 25 -34
-51 26 -125 120 -125 157 0 8 10 -5 23 -29 12 -24 47 -66 77 -94z m1476 65
c-15 -29 -90 -102 -104 -102 -4 1 10 14 30 31 20 17 47 46 58 65 26 41 36 45
16 6z m-800 -165 c-24 -31 -26 -43 -26 -125 0 -79 -2 -92 -16 -92 -10 0 -65
47 -123 103 -58 57 -117 111 -131 120 -16 11 -19 17 -9 17 16 0 21 -4 127
-102 34 -32 71 -58 82 -58 33 0 60 47 60 105 0 58 4 65 37 65 l24 0 -25 -33z"/>
<path d="M1825 2469 c-320 -110 -418 -501 -187 -751 177 -191 487 -190 665 2
277 298 71 771 -335 770 -57 -1 -102 -7 -143 -21z m290 -103 c71 -32 148 -106
180 -171 90 -183 12 -407 -173 -493 -49 -23 -70 -27 -152 -27 -85 0 -101 3
-154 29 -129 63 -198 171 -204 316 -5 107 19 177 85 250 111 124 276 162 418
96z m108 -1 c53 -40 100 -99 128 -163 32 -73 21 -69 -16 5 -32 65 -105 146
-160 180 -11 6 -15 12 -10 12 6 0 31 -15 58 -34z m-521 -30 c-33 -30 -72 -79
-88 -109 -30 -57 -44 -70 -22 -20 22 50 87 132 125 159 21 14 39 25 41 25 2 0
-24 -25 -56 -55z m9 -609 c35 -32 53 -53 41 -46 -54 28 -162 151 -162 185 0 5
13 -11 28 -36 16 -24 57 -71 93 -103z m616 91 c-28 -47 -80 -103 -112 -119
-11 -5 0 10 25 34 25 24 59 65 75 90 37 59 47 54 12 -5z"/>
<path d="M1700 2141 c-14 -27 -13 -37 6 -55 12 -12 38 -16 113 -16 102 0 121
7 121 45 0 38 -19 45 -127 45 -91 0 -103 -2 -113 -19z"/>
<path d="M2010 2144 c-10 -11 -11 -23 -4 -42 9 -27 10 -27 116 -30 101 -3 108
-1 118 19 9 16 9 28 1 45 -10 23 -15 24 -115 24 -82 0 -106 -3 -116 -16z"/>
<path d="M1875 1901 c-49 -23 -88 -63 -83 -87 2 -10 15 -25 29 -33 24 -13 28
-12 63 14 52 40 119 40 169 2 42 -32 58 -34 80 -9 24 26 21 44 -10 75 -61 57
-170 74 -248 38z"/>
<path d="M526 1589 c-15 -22 -11 -48 8 -61 14 -10 638 -10 652 0 19 13 23 39
8 61 -15 21 -21 21 -334 21 -313 0 -319 0 -334 -21z"/>
<path d="M530 1260 c-24 -24 -24 -29 -4 -58 l15 -22 549 0 549 0 15 22 c20 29
20 34 -4 58 -20 20 -33 20 -560 20 -527 0 -540 0 -560 -20z"/>
<path d="M526 918 c-20 -29 -20 -34 4 -58 20 -20 33 -20 560 -20 527 0 540 0
560 20 24 24 24 29 4 58 l-15 22 -549 0 -549 0 -15 -22z"/>
</g>
</svg>
