<?xml version="1.0" encoding="UTF-8"?>
<svg version="1.1" xmlns="http://www.w3.org/2000/svg" width="50" height="50">
<path d="M0 0 C3.35580992 2.7768523 5.49307117 5.2061005 6.234375 9.61376953 C6.62764102 14.62256796 6.34729474 19.52881979 5.8828125 24.5234375 C6.9965625 24.6265625 8.1103125 24.7296875 9.2578125 24.8359375 C11.0521875 25.17625 11.0521875 25.17625 12.8828125 25.5234375 C15.36320157 29.2440211 15.34618453 31.12140321 14.8828125 35.5234375 C13.1953125 37.7109375 13.1953125 37.7109375 10.8828125 39.5234375 C10.1403125 40.2659375 9.3978125 41.0084375 8.6328125 41.7734375 C4.71494179 44.26662795 2.48237404 44.04274284 -2.1171875 43.5234375 C-2.60703125 43.02779297 -3.096875 42.53214844 -3.6015625 42.02148438 C-5.54825289 40.09737158 -6.54566584 40.14376612 -9.2421875 40.1171875 C-10.03109375 40.09527344 -10.82 40.07335938 -11.6328125 40.05078125 C-12.45265625 40.04175781 -13.2725 40.03273437 -14.1171875 40.0234375 C-15.74238952 40.00555006 -17.36751373 39.97481733 -18.9921875 39.9296875 C-20.07113281 39.91905273 -20.07113281 39.91905273 -21.171875 39.90820312 C-23.1171875 39.5234375 -23.1171875 39.5234375 -24.85229492 38.50415039 C-26.86078372 35.35902983 -26.52392835 32.03901099 -26.48046875 28.42578125 C-26.48096725 27.63571182 -26.48146576 26.8456424 -26.48197937 26.03163147 C-26.47964058 24.36310305 -26.46992344 22.69457099 -26.45336914 21.02612305 C-26.42974315 18.46696586 -26.43281342 15.90884813 -26.43945312 13.34960938 C-26.43387742 11.72916043 -26.42676821 10.10871589 -26.41796875 8.48828125 C-26.41888016 7.72055893 -26.41979156 6.95283661 -26.42073059 6.16184998 C-26.34822784 0.75447784 -26.34822784 0.75447784 -24.1171875 -1.4765625 C-17.12780911 -4.15046513 -6.6738207 -3.16128349 0 0 Z M-16.1171875 -0.4765625 C-16.1171875 2.1634375 -16.1171875 4.8034375 -16.1171875 7.5234375 C-17.1071875 7.5234375 -18.0971875 7.5234375 -19.1171875 7.5234375 C-19.7771875 6.2034375 -20.4371875 4.8834375 -21.1171875 3.5234375 C-22.45936189 6.20778627 -22.24680435 8.29846884 -22.25 11.30078125 C-22.25128906 12.45384766 -22.25257812 13.60691406 -22.25390625 14.79492188 C-22.25003906 16.00470703 -22.24617188 17.21449219 -22.2421875 18.4609375 C-22.24605469 19.66685547 -22.24992187 20.87277344 -22.25390625 22.11523438 C-22.25261719 23.26958984 -22.25132813 24.42394531 -22.25 25.61328125 C-22.24887207 26.67409912 -22.24774414 27.73491699 -22.24658203 28.82788086 C-22.23414875 31.6231819 -22.23414875 31.6231819 -21.1171875 34.5234375 C-17.69485778 35.66421407 -15.03045533 35.62158867 -11.4296875 35.5859375 C-10.25019531 35.57691406 -9.07070313 35.56789062 -7.85546875 35.55859375 C-6.95183594 35.54699219 -6.04820313 35.53539062 -5.1171875 35.5234375 C-5.1171875 34.5334375 -5.1171875 33.5434375 -5.1171875 32.5234375 C-4.1271875 31.5334375 -3.1371875 30.5434375 -2.1171875 29.5234375 C-8.0571875 29.5234375 -13.9971875 29.5234375 -20.1171875 29.5234375 C-20.1171875 25.2334375 -20.1171875 20.9434375 -20.1171875 16.5234375 C-13.5171875 16.5234375 -6.9171875 16.5234375 -0.1171875 16.5234375 C-0.1171875 20.8134375 -0.1171875 25.1034375 -0.1171875 29.5234375 C2.21357179 28.56478241 2.21357179 28.56478241 3.8828125 25.5234375 C4.02527147 22.75688426 4.07050695 20.09690444 4.0078125 17.3359375 C3.99878906 16.58634766 3.98976563 15.83675781 3.98046875 15.06445312 C3.95693828 13.21731096 3.92106811 11.37033338 3.8828125 9.5234375 C2.7484375 9.3790625 1.6140625 9.2346875 0.4453125 9.0859375 C-3.1171875 8.5234375 -3.1171875 8.5234375 -4.1171875 7.5234375 C-4.57178608 4.86880629 -4.81961988 2.20154612 -5.1171875 -0.4765625 C-8.7471875 -0.4765625 -12.3771875 -0.4765625 -16.1171875 -0.4765625 Z M-21.1171875 -0.4765625 C-22.1071875 0.1834375 -23.0971875 0.8434375 -24.1171875 1.5234375 C-24.40920474 4.12459306 -24.513421 6.48434902 -24.48046875 9.0859375 C-24.48096725 9.83302979 -24.48146576 10.58012207 -24.48197937 11.34985352 C-24.47963773 12.93020282 -24.46990381 14.51055577 -24.45336914 16.09082031 C-24.42977928 18.51401001 -24.4328066 20.93609972 -24.43945312 23.359375 C-24.43387636 24.89323575 -24.42676649 26.42709185 -24.41796875 27.9609375 C-24.41888016 28.68804932 -24.41979156 29.41516113 -24.42073059 30.16430664 C-24.48714612 34.29805551 -24.48714612 34.29805551 -22.1171875 37.5234375 C-19.2078317 37.66861494 -16.3972415 37.70974546 -13.4921875 37.6484375 C-12.28949219 37.63490234 -12.28949219 37.63490234 -11.0625 37.62109375 C-9.08060227 37.59749973 -7.09885769 37.56162815 -5.1171875 37.5234375 C-5.1171875 37.1934375 -5.1171875 36.8634375 -5.1171875 36.5234375 C-6.26058594 36.46285156 -7.40398438 36.40226562 -8.58203125 36.33984375 C-10.07293055 36.25545322 -11.56381525 36.17080448 -13.0546875 36.0859375 C-14.18680664 36.02696289 -14.18680664 36.02696289 -15.34179688 35.96679688 C-21.00390625 35.63671875 -21.00390625 35.63671875 -22.1171875 34.5234375 C-22.2055842 32.1477523 -22.23249055 29.80135076 -22.21484375 27.42578125 C-22.2134288 26.71692276 -22.21201385 26.00806427 -22.21055603 25.27772522 C-22.20494193 23.00542038 -22.19238713 20.73321275 -22.1796875 18.4609375 C-22.17467431 16.92382954 -22.17011109 15.38672005 -22.16601562 13.84960938 C-22.15496792 10.07418108 -22.13769391 6.29882579 -22.1171875 2.5234375 C-21.4571875 2.1934375 -20.7971875 1.8634375 -20.1171875 1.5234375 C-20.4471875 0.8634375 -20.7771875 0.2034375 -21.1171875 -0.4765625 Z M-18.1171875 0.5234375 C-18.1171875 2.1734375 -18.1171875 3.8234375 -18.1171875 5.5234375 C-17.7871875 5.5234375 -17.4571875 5.5234375 -17.1171875 5.5234375 C-17.1171875 3.8734375 -17.1171875 2.2234375 -17.1171875 0.5234375 C-17.4471875 0.5234375 -17.7771875 0.5234375 -18.1171875 0.5234375 Z M-4.1171875 1.5234375 C-3.7871875 3.5034375 -3.4571875 5.4834375 -3.1171875 7.5234375 C-0.1471875 8.0184375 -0.1471875 8.0184375 2.8828125 8.5234375 C1.90715138 7.35383763 0.9271875 6.18782573 -0.0546875 5.0234375 C-0.87259766 4.04890625 -0.87259766 4.04890625 -1.70703125 3.0546875 C-2.17238281 2.549375 -2.63773438 2.0440625 -3.1171875 1.5234375 C-3.4471875 1.5234375 -3.7771875 1.5234375 -4.1171875 1.5234375 Z M-19.1171875 17.5234375 C-18.1171875 20.5234375 -18.1171875 20.5234375 -18.1171875 20.5234375 Z M-17.1171875 17.5234375 C-17.1171875 18.5134375 -17.1171875 19.5034375 -17.1171875 20.5234375 C-13.4871875 20.5234375 -9.8571875 20.5234375 -6.1171875 20.5234375 C-6.1171875 19.5334375 -6.1171875 18.5434375 -6.1171875 17.5234375 C-9.7471875 17.5234375 -13.3771875 17.5234375 -17.1171875 17.5234375 Z M-5.1171875 17.5234375 C-5.1171875 18.5134375 -5.1171875 19.5034375 -5.1171875 20.5234375 C-3.7971875 20.5234375 -2.4771875 20.5234375 -1.1171875 20.5234375 C-1.1171875 19.5334375 -1.1171875 18.5434375 -1.1171875 17.5234375 C-2.4371875 17.5234375 -3.7571875 17.5234375 -5.1171875 17.5234375 Z M-19.1171875 21.5234375 C-18.1171875 24.5234375 -18.1171875 24.5234375 -18.1171875 24.5234375 Z M-17.1171875 21.5234375 C-17.1171875 22.5134375 -17.1171875 23.5034375 -17.1171875 24.5234375 C-13.4871875 24.5234375 -9.8571875 24.5234375 -6.1171875 24.5234375 C-6.1171875 23.5334375 -6.1171875 22.5434375 -6.1171875 21.5234375 C-9.7471875 21.5234375 -13.3771875 21.5234375 -17.1171875 21.5234375 Z M-5.1171875 21.5234375 C-5.1171875 22.5134375 -5.1171875 23.5034375 -5.1171875 24.5234375 C-3.7971875 24.5234375 -2.4771875 24.5234375 -1.1171875 24.5234375 C-1.1171875 23.5334375 -1.1171875 22.5434375 -1.1171875 21.5234375 C-2.4371875 21.5234375 -3.7571875 21.5234375 -5.1171875 21.5234375 Z M-19.1171875 25.5234375 C-18.1171875 28.5234375 -18.1171875 28.5234375 -18.1171875 28.5234375 Z M-17.1171875 25.5234375 C-17.1171875 26.5134375 -17.1171875 27.5034375 -17.1171875 28.5234375 C-13.4871875 28.5234375 -9.8571875 28.5234375 -6.1171875 28.5234375 C-6.1171875 27.5334375 -6.1171875 26.5434375 -6.1171875 25.5234375 C-9.7471875 25.5234375 -13.3771875 25.5234375 -17.1171875 25.5234375 Z M-5.1171875 25.5234375 C-5.1171875 26.5134375 -5.1171875 27.5034375 -5.1171875 28.5234375 C-3.7971875 28.5234375 -2.4771875 28.5234375 -1.1171875 28.5234375 C-1.1171875 27.5334375 -1.1171875 26.5434375 -1.1171875 25.5234375 C-2.4371875 25.5234375 -3.7571875 25.5234375 -5.1171875 25.5234375 Z M5.8828125 26.5234375 C9.8828125 27.5234375 9.8828125 27.5234375 9.8828125 27.5234375 Z M5.8828125 28.5234375 C6.1921875 29.1421875 6.5015625 29.7609375 6.8203125 30.3984375 C7.5078125 31.7734375 8.1953125 33.1484375 8.8828125 34.5234375 C9.5428125 34.5234375 10.2028125 34.5234375 10.8828125 34.5234375 C10.8828125 32.8734375 10.8828125 31.2234375 10.8828125 29.5234375 C9.2328125 29.1934375 7.5828125 28.8634375 5.8828125 28.5234375 Z M-0.1171875 33.5234375 C-0.4471875 35.1734375 -0.7771875 36.8234375 -1.1171875 38.5234375 C1.3578125 39.0184375 1.3578125 39.0184375 3.8828125 39.5234375 C4.2128125 37.8734375 4.5428125 36.2234375 4.8828125 34.5234375 C3.2328125 34.1934375 1.5828125 33.8634375 -0.1171875 33.5234375 Z " fill="#758CA3" transform="translate(35.1171875,6.4765625)"/>
<path d="M0 0 C3.3 0 6.6 0 10 0 C10 0.33 10 0.66 10 1 C6.7 1 3.4 1 0 1 C0 0.67 0 0.34 0 0 Z " fill="#758CA3" transform="translate(17,20)"/>
<path d="M0 0 C1.65 0 3.3 0 5 0 C5 0.33 5 0.66 5 1 C3.35 1 1.7 1 0 1 C0 0.67 0 0.34 0 0 Z " fill="#758CA3" transform="translate(28,20)"/>
</svg>
