<!DOCTYPE svg PUBLIC "-//W3C//DTD SVG 1.1//EN" "http://www.w3.org/Graphics/SVG/1.1/DTD/svg11.dtd">
<!-- Uploaded to: SVG Repo, www.svgrepo.com, Transformed by: SVG Repo Mixer Tools -->
<svg fill="#758ca3" version="1.1" id="Capa_1" xmlns="http://www.w3.org/2000/svg" xmlns:xlink="http://www.w3.org/1999/xlink" viewBox="0 0 56 56" xml:space="preserve" width="800px" height="800px">
<g id="SVGRepo_bgCarrier" stroke-width="0"/>
<g id="SVGRepo_tracerCarrier" stroke-linecap="round" stroke-linejoin="round"/>
<g id="SVGRepo_iconCarrier"> <g> <g> <path d="M44.5,0h-33c-0.553,0-1,0.448-1,1v54c0,0.552,0.447,1,1,1h6h24h3c0.553,0,1-0.448,1-1V1C45.5,0.448,45.053,0,44.5,0z M40.5,15h-22V5h22V15z M18.5,17h22v10h-22V17z M18.5,29h22v9h-22V29z M18.5,54V40h22v14H18.5z M43.5,54h-1V40v-2v-9v-2V17v-2V4 c0-0.552-0.447-1-1-1h-24c-0.553,0-1,0.448-1,1v50h-4V2h31V54z"/> <rect x="13.5" y="12" width="2" height="34"/> <path d="M30,18.5c-0.98,0-1.864,0.407-2.5,1.058C26.864,18.907,25.98,18.5,25,18.5c-1.93,0-3.5,1.57-3.5,3.5s1.57,3.5,3.5,3.5 c0.98,0,1.864-0.407,2.5-1.058c0.636,0.651,1.52,1.058,2.5,1.058c1.93,0,3.5-1.57,3.5-3.5S31.93,18.5,30,18.5z M25,23.5 c-0.827,0-1.5-0.673-1.5-1.5s0.673-1.5,1.5-1.5s1.5,0.673,1.5,1.5S25.827,23.5,25,23.5z M30,23.5c-0.827,0-1.5-0.673-1.5-1.5 s0.673-1.5,1.5-1.5s1.5,0.673,1.5,1.5S30.827,23.5,30,23.5z"/> <path d="M35,30.5c-1.93,0-3.5,1.57-3.5,3.5s1.57,3.5,3.5,3.5s3.5-1.57,3.5-3.5S36.93,30.5,35,30.5z M35,35.5 c-0.827,0-1.5-0.673-1.5-1.5s0.673-1.5,1.5-1.5s1.5,0.673,1.5,1.5S35.827,35.5,35,35.5z"/> <path d="M30.75,14c1.517,0,2.75-1.233,2.75-2.75S32.267,8.5,30.75,8.5C29.233,8.5,28,9.733,28,11.25S29.233,14,30.75,14z M30.75,10.5c0.413,0,0.75,0.336,0.75,0.75S31.163,12,30.75,12S30,11.664,30,11.25S30.337,10.5,30.75,10.5z"/> <path d="M24,44c-2.481,0-4.5,2.019-4.5,4.5S21.519,53,24,53s4.5-2.019,4.5-4.5S26.481,44,24,44z M24,51 c-1.379,0-2.5-1.122-2.5-2.5S22.621,46,24,46s2.5,1.122,2.5,2.5S25.379,51,24,51z"/> </g> </g> </g>
</svg>