 <svg  version="1.0" xmlns="http://www.w3.org/2000/svg"  width="900.000000pt" height="900.000000pt" viewBox="0 0 900.000000 900.000000"  preserveAspectRatio="xMidYMid meet">  <g transform="translate(0.000000,900.000000) scale(0.100000,-0.100000)" fill="#3393ce" stroke="none"> <path d="M7205 8629 c-11 -7 -264 -256 -562 -553 -299 -298 -548 -543 -553 -544 -6 -2 -62 21 -123 51 -132 66 -244 117 -253 117 -3 0 -22 7 -42 16 -21 9 -52 22 -70 30 -18 8 -44 14 -57 14 -13 0 -27 4 -30 10 -5 9 -62 29 -140 50 -176 47 -229 60 -253 60 -16 0 -48 6 -73 14 -112 34 -280 53 -584 63 -335 11 -694 -32 -1000 -119 -147 -42 -171 -50 -197 -64 -14 -8 -37 -14 -50 -14 -12 0 -32 -7 -42 -15 -11 -8 -28 -15 -38 -15 -10 0 -44 -12 -75 -26 -32 -15 -78 -35 -103 -46 -88 -38 -313 -156 -375 -197 -22 -15 -47 -30 -55 -33 -43 -19 -346 -242 -405 -299 -22 -21 -81 -76 -131 -122 -114 -106 -282 -288 -360 -391 -91 -121 -193 -268 -209 -301 -16 -33 -29 -54 -61 -100 -11 -16 -33 -55 -48 -85 -15 -30 -42 -84 -61 -120 -19 -36 -34 -72 -34 -81 -1 -8 -6 -20 -12 -26 -25 -25 -169 -415 -169 -459 0 -12 -4 -25 -9 -28 -5 -3 -14 -30 -21 -58 -18 -87 -31 -140 -45 -198 -7 -30 -16 -80 -19 -110 -4 -30 -11 -75 -16 -100 -5 -25 -14 -128 -21 -230 -10 -168 -9 -289 5 -557 4 -91 4 -92 -22 -109 -78 -49 -131 -98 -156 -144 -24 -43 -29 -68 -36 -173 -13 -178 -21 -239 -36 -267 -7 -14 -29 -61 -50 -105 -20 -44 -49 -102 -62 -130 -21 -41 -25 -65 -25 -135 0 -84 1 -87 62 -215 34 -71 66 -138 72 -148 12 -22 51 -325 45 -352 -7 -32 27 -103 71 -149 23 -24 78 -67 122 -97 49 -32 81 -60 81 -70 0 -9 -13 -43 -29 -75 -15 -33 -36 -77 -45 -99 -9 -22 -30 -67 -47 -100 -16 -34 -29 -68 -29 -77 0 -8 -7 -21 -15 -28 -8 -7 -15 -17 -15 -22 0 -5 -10 -30 -21 -56 -12 -26 -32 -72 -46 -102 -13 -30 -33 -73 -43 -95 -50 -107 -90 -197 -119 -265 -36 -82 -70 -157 -108 -235 -14 -27 -27 -76 -30 -108 -6 -56 -5 -58 31 -92 33 -31 44 -35 88 -35 53 0 153 11 348 37 194 26 175 33 323 -120 71 -72 156 -161 189 -196 l61 -63 51 5 c43 4 55 10 83 42 18 21 33 46 33 55 0 10 7 23 15 30 8 7 15 16 15 21 0 5 14 40 31 77 48 104 87 188 138 304 10 24 30 69 45 101 14 32 26 63 26 69 0 6 6 19 14 27 7 9 28 50 45 91 38 91 51 119 84 190 15 30 31 67 36 83 6 15 22 33 36 39 23 10 29 9 49 -13 12 -13 35 -53 51 -89 15 -36 46 -103 67 -150 22 -47 45 -98 53 -115 16 -37 62 -138 104 -226 17 -36 31 -68 31 -71 0 -7 44 -105 100 -223 21 -45 42 -93 45 -108 4 -15 11 -27 15 -27 5 0 14 -16 20 -36 20 -60 90 -89 155 -64 29 11 47 29 210 205 61 66 124 134 142 152 34 36 57 40 133 22 49 -11 269 -36 401 -46 l86 -6 36 37 c32 31 37 43 37 81 0 25 -4 53 -10 63 -30 55 -70 157 -66 169 6 15 35 17 71 3 14 -5 81 -17 148 -25 168 -21 709 -14 842 10 50 9 119 21 155 25 76 9 152 27 198 46 18 8 45 14 60 14 42 0 301 82 337 107 11 7 29 13 40 13 12 0 30 7 41 15 10 8 25 15 33 15 21 0 388 175 401 191 3 3 23 16 45 28 48 25 156 94 214 136 23 17 72 52 109 78 117 84 202 158 357 312 167 165 231 237 347 395 43 58 81 110 86 115 9 13 74 114 87 137 6 10 33 57 61 105 27 49 70 129 94 178 23 50 56 117 71 149 16 32 29 66 29 75 0 9 7 25 15 35 8 11 15 30 15 42 0 12 7 27 15 34 8 7 15 19 15 26 0 8 11 47 26 87 14 39 29 90 34 112 5 22 15 60 24 85 8 25 22 81 31 125 9 44 21 94 26 111 5 17 9 41 9 55 0 13 7 56 14 94 34 160 46 559 26 825 -10 127 -28 257 -50 360 -6 25 -20 90 -31 145 -12 55 -28 112 -35 127 -8 15 -14 37 -14 48 0 30 -122 366 -160 438 -4 10 -36 75 -70 145 -57 117 -61 129 -47 145 9 9 250 251 537 537 286 286 529 534 540 551 12 19 20 49 20 74 0 34 -6 48 -34 76 -19 19 -44 34 -55 34 -12 0 -34 6 -49 14 -15 7 -88 30 -162 50 -285 78 -280 75 -260 135 8 25 11 67 8 115 -4 65 -10 83 -47 146 -47 79 -112 130 -196 156 -63 18 -152 18 -189 -1 -27 -15 -31 -14 -48 3 -10 10 -21 31 -24 48 -3 16 -9 43 -14 59 -5 17 -17 57 -26 90 -8 33 -28 103 -44 155 -15 52 -31 106 -34 120 -9 42 -59 82 -108 86 -24 3 -52 -1 -63 -7z m13 -414 c29 -110 41 -152 56 -205 9 -30 19 -72 23 -92 l6 -38 -224 -225 c-122 -124 -228 -225 -235 -225 -12 0 -30 48 -54 145 -7 28 -18 64 -25 80 -7 17 -19 59 -28 93 l-15 64 219 219 c120 121 219 224 219 230 0 6 10 9 23 7 17 -2 25 -14 35 -53z m499 -390 c33 -22 47 -57 39 -101 -7 -32 -188 -217 -1574 -1603 -1020 -1019 -1580 -1573 -1605 -1584 -37 -18 -38 -18 -71 2 -58 36 -73 105 -33 157 12 16 726 733 1586 1593 1557 1555 1565 1563 1599 1557 19 -3 45 -12 59 -21z m-3007 -125 c155 -11 338 -43 465 -80 17 -5 66 -18 110 -30 75 -20 144 -42 190 -60 11 -4 43 -15 70 -25 28 -9 61 -22 75 -30 14 -7 61 -27 104 -45 102 -43 166 -79 166 -94 0 -6 -21 -33 -47 -60 -47 -47 -48 -49 -47 -110 0 -35 10 -89 22 -126 24 -68 82 -272 108 -375 8 -33 19 -64 24 -69 6 -6 10 -23 10 -38 0 -21 -5 -28 -19 -28 -11 0 -23 5 -26 11 -6 9 -131 94 -160 109 -5 3 -28 16 -50 30 -69 43 -77 47 -175 98 -121 64 -314 142 -349 142 -5 0 -22 5 -38 12 -15 6 -50 17 -78 24 -27 6 -79 19 -115 28 -250 64 -654 80 -930 38 -147 -23 -369 -77 -475 -116 -11 -4 -51 -19 -90 -33 -95 -34 -364 -168 -399 -198 -16 -14 -32 -25 -36 -25 -10 0 -134 -82 -154 -102 -10 -10 -21 -18 -25 -18 -10 0 -149 -116 -229 -191 -83 -78 -211 -222 -283 -319 -57 -76 -149 -214 -149 -224 0 -3 -13 -24 -29 -48 -27 -41 -121 -228 -121 -242 0 -4 -13 -36 -30 -71 -16 -35 -30 -69 -30 -76 0 -6 -6 -25 -14 -42 -13 -29 -54 -173 -85 -297 -12 -47 -48 -304 -53 -379 -3 -44 -3 -44 -58 -63 -35 -12 -103 -22 -190 -28 -144 -9 -222 -24 -241 -46 -6 -8 -16 -14 -22 -14 -16 0 -85 -81 -105 -123 -31 -67 -83 -23 -66 58 3 17 7 89 10 160 6 219 42 478 94 685 13 50 81 271 91 295 4 11 22 56 39 100 18 44 42 103 55 130 12 28 33 75 46 105 12 30 28 62 34 70 7 8 15 22 19 30 3 8 16 31 27 50 12 19 31 53 42 75 12 22 41 68 65 102 23 34 42 65 42 69 0 3 12 20 26 38 14 17 51 65 81 106 67 90 87 114 217 254 97 104 315 307 339 315 7 2 35 23 62 45 72 60 125 98 165 120 19 10 51 31 71 47 20 16 39 29 42 29 7 0 169 91 187 105 8 6 51 27 95 45 44 18 87 39 96 47 8 7 24 13 35 13 11 0 28 6 39 13 11 7 40 19 65 26 25 7 54 18 65 25 11 7 41 18 68 26 26 7 50 17 53 21 3 5 17 9 32 9 15 0 47 7 72 15 82 27 254 68 315 75 33 4 99 13 147 20 205 27 446 31 738 10z m1828 -142 c6 -24 30 -106 52 -182 22 -76 40 -146 40 -154 0 -20 -440 -462 -460 -462 -17 0 -44 69 -60 150 -4 25 -12 56 -18 70 -13 35 -29 89 -37 127 -6 30 3 40 222 262 125 126 233 230 238 231 6 0 16 -19 23 -42z m1326 -178 c17 -5 58 -17 91 -25 33 -9 89 -25 125 -36 36 -10 70 -19 77 -19 7 0 16 -7 21 -16 6 -12 -43 -67 -221 -246 -189 -190 -232 -229 -250 -225 -55 14 -139 37 -217 60 -47 13 -98 27 -113 31 -15 4 -30 12 -33 19 -7 18 446 467 470 467 11 0 33 -4 50 -10z m-3219 -595 c50 -8 108 -15 129 -15 21 0 69 -8 105 -19 36 -10 91 -24 121 -30 30 -7 88 -26 129 -42 40 -16 78 -29 83 -29 9 0 54 -19 154 -66 28 -13 53 -24 56 -24 9 0 197 -108 264 -152 35 -22 65 -46 68 -55 4 -9 -73 -93 -228 -249 -129 -129 -238 -234 -241 -234 -4 0 -26 14 -50 30 -24 17 -48 30 -54 30 -6 0 -32 13 -58 28 -26 15 -75 38 -108 51 -33 12 -70 27 -82 32 -13 4 -73 22 -135 38 -295 78 -696 60 -969 -43 -87 -33 -197 -85 -204 -97 -4 -5 -14 -9 -24 -9 -23 0 -194 -113 -273 -181 -185 -157 -305 -308 -420 -524 -39 -73 -51 -102 -95 -230 -40 -117 -48 -151 -69 -305 -9 -63 -18 -121 -20 -128 -3 -11 -21 -12 -82 -7 -72 7 -176 43 -285 100 -16 8 -34 15 -42 15 -7 0 -18 7 -25 15 -7 8 -23 15 -35 15 -12 0 -39 7 -59 15 -22 9 -50 13 -69 10 -53 -9 -63 5 -49 65 7 28 12 67 12 86 0 20 5 44 11 55 5 11 16 50 24 87 18 93 81 292 105 334 6 10 10 27 10 37 0 11 4 22 8 25 7 4 61 109 86 166 3 8 15 29 26 45 11 17 28 46 39 65 11 19 48 74 83 122 35 47 70 96 78 108 8 12 29 36 45 54 197 211 276 283 422 391 56 41 104 75 107 75 4 0 39 20 79 44 39 23 113 62 162 85 50 22 107 50 127 61 20 11 43 20 51 20 8 0 28 7 43 15 16 8 37 15 47 15 10 0 28 5 40 12 43 23 189 55 372 82 195 29 451 34 590 11z m2569 -86 c39 -12 89 -28 111 -35 23 -8 50 -14 60 -14 26 0 118 -35 122 -47 4 -12 -445 -463 -461 -463 -36 0 -353 93 -367 107 -10 10 24 50 162 190 179 183 284 283 296 283 3 0 38 -10 77 -21z m-614 -689 c58 -17 141 -42 185 -55 103 -31 161 -46 205 -52 19 -3 45 -12 57 -21 35 -22 82 -8 140 43 28 25 57 45 65 45 17 0 43 -50 127 -245 12 -27 26 -59 31 -70 5 -11 21 -56 36 -100 14 -44 29 -84 34 -90 4 -5 10 -23 13 -40 3 -16 15 -66 26 -110 45 -166 60 -232 70 -310 70 -515 49 -927 -71 -1375 -11 -41 -22 -86 -25 -100 -3 -14 -11 -39 -19 -57 -8 -17 -14 -37 -14 -45 0 -7 -20 -60 -45 -117 -25 -57 -45 -108 -45 -113 0 -11 -148 -309 -181 -363 -38 -64 -190 -290 -199 -295 -4 -3 -18 -21 -31 -41 -24 -35 -91 -119 -119 -149 -8 -9 -53 -59 -100 -110 -71 -78 -144 -144 -380 -343 -44 -38 -99 -77 -107 -77 -5 0 -24 -13 -43 -30 -19 -16 -38 -29 -41 -30 -4 0 -33 -17 -65 -39 -33 -21 -95 -58 -139 -81 -44 -24 -95 -51 -113 -62 -19 -10 -87 -41 -151 -68 -65 -27 -131 -56 -147 -65 -16 -8 -35 -15 -42 -15 -7 0 -20 -4 -30 -9 -35 -19 -246 -81 -362 -107 -105 -23 -285 -53 -425 -71 -206 -26 -572 -15 -795 23 -19 3 -60 10 -90 14 -70 10 -141 30 -159 44 -11 9 -111 207 -111 221 0 4 -38 88 -80 180 -10 22 -28 60 -38 85 -27 60 -70 156 -94 207 -21 46 -17 77 12 93 13 7 32 2 76 -20 33 -16 67 -30 76 -30 10 0 32 -6 50 -14 91 -39 333 -103 421 -111 23 -3 96 -12 162 -21 94 -12 165 -15 325 -10 113 3 225 10 250 16 25 6 79 15 120 20 100 11 210 35 295 64 39 13 97 32 130 42 33 10 69 24 80 31 11 7 26 13 33 13 18 0 269 123 316 155 20 14 41 25 45 25 4 0 27 13 49 30 23 16 45 30 48 30 6 0 136 97 213 159 165 133 364 353 493 546 210 310 349 668 410 1048 19 121 22 180 22 397 0 176 -4 274 -13 315 -8 33 -17 92 -22 130 -12 109 -66 305 -126 460 -19 50 -39 94 -44 99 -5 6 -9 17 -9 26 0 18 -114 246 -135 270 -7 8 -20 30 -30 49 -9 19 -21 39 -26 45 -5 6 -20 27 -34 46 -13 19 -36 52 -51 72 -14 20 -23 42 -19 48 8 13 10 13 155 -30z m-2026 -136 c59 -8 112 -17 117 -20 5 -3 30 -9 57 -14 67 -11 110 -28 253 -94 31 -14 61 -26 67 -26 6 0 16 -9 22 -21 10 -18 -13 -44 -237 -269 l-249 -249 -45 16 c-24 8 -84 17 -134 20 -215 11 -400 -61 -570 -224 -57 -54 -87 -96 -133 -188 -47 -95 -72 -182 -79 -285 -6 -78 11 -218 27 -234 6 -6 10 -23 10 -39 0 -25 8 -47 41 -107 5 -8 19 -35 31 -59 30 -58 182 -209 242 -241 106 -57 121 -64 155 -71 20 -4 61 -15 91 -24 69 -21 280 -16 326 7 16 9 46 18 68 21 64 10 214 107 290 187 37 39 72 82 78 96 6 13 14 24 18 24 9 0 62 125 85 200 31 100 31 266 0 390 -6 22 20 51 234 265 133 132 250 241 260 243 13 2 22 -4 26 -18 4 -12 20 -41 36 -65 16 -24 29 -50 29 -59 0 -9 4 -24 9 -34 54 -102 100 -339 101 -525 1 -123 -2 -160 -29 -282 -35 -166 -49 -208 -105 -325 -66 -140 -154 -265 -263 -375 -142 -144 -213 -196 -388 -285 -141 -72 -208 -94 -440 -141 -79 -16 -307 -12 -415 7 -143 26 -385 107 -408 138 -14 17 -66 122 -107 214 -30 65 -38 98 -41 158 -10 184 -28 284 -64 346 -18 30 -95 94 -150 124 -19 10 -38 24 -43 31 -4 6 -34 28 -66 48 -57 34 -97 82 -176 210 -32 51 -77 108 -102 128 -41 33 -43 47 -22 168 30 177 38 208 70 299 45 124 95 226 148 300 25 36 59 84 75 108 16 24 59 71 94 105 36 34 77 74 91 88 28 27 146 119 154 119 3 0 40 20 81 45 42 25 79 45 82 45 3 0 29 11 57 24 65 29 130 52 185 66 23 5 61 15 85 21 48 12 213 27 302 27 33 0 109 -7 169 -14z m1762 -126 c31 -51 66 -109 78 -128 12 -19 36 -64 53 -100 17 -36 43 -90 58 -120 15 -30 31 -68 35 -85 5 -16 21 -64 35 -105 61 -178 105 -411 120 -640 5 -79 -6 -315 -20 -410 -17 -117 -27 -168 -49 -250 -26 -100 -90 -299 -105 -328 -5 -9 -39 -78 -76 -152 -37 -74 -101 -186 -143 -248 -43 -63 -81 -121 -87 -130 -5 -10 -21 -29 -35 -43 -14 -14 -41 -45 -60 -69 -68 -85 -230 -234 -369 -340 -25 -19 -52 -40 -59 -47 -7 -7 -18 -13 -23 -13 -5 0 -36 -18 -68 -40 -33 -22 -88 -55 -123 -74 -34 -18 -72 -38 -83 -44 -11 -7 -60 -28 -109 -48 -49 -20 -96 -39 -105 -44 -27 -14 -213 -69 -286 -85 -236 -52 -475 -72 -666 -56 -77 6 -145 9 -151 5 -5 -3 -20 -2 -31 4 -12 6 -47 15 -77 20 -144 26 -240 49 -320 77 -19 7 -48 17 -65 22 -36 11 -36 10 -7 263 18 152 24 183 51 237 17 34 31 67 31 73 0 6 11 28 25 50 24 38 50 50 71 32 21 -18 217 -73 349 -97 150 -27 460 -22 577 10 29 9 76 19 103 24 50 10 179 52 225 75 174 86 234 118 290 155 218 148 432 391 546 621 145 293 199 590 169 919 -8 85 -21 175 -29 200 -8 25 -19 68 -25 95 -7 26 -20 68 -31 92 -11 23 -20 49 -20 57 0 17 -79 180 -115 237 -15 23 -25 48 -23 56 5 24 451 464 470 464 10 0 38 -36 74 -92z m-1962 -786 c3 -5 -15 -29 -41 -53 -25 -24 -60 -66 -78 -94 -88 -136 -66 -320 52 -429 51 -48 81 -63 176 -91 55 -16 63 -16 128 -1 89 22 145 54 202 116 25 28 50 50 55 50 18 0 22 -30 11 -82 -16 -71 -34 -112 -86 -191 -48 -72 -131 -140 -216 -176 -60 -26 -176 -41 -257 -34 -146 13 -303 126 -381 276 l-43 82 -1 125 c0 139 8 172 63 265 67 111 151 180 276 224 54 20 131 26 140 13z m-2192 -494 c24 -13 68 -34 98 -46 30 -13 75 -34 100 -47 81 -42 139 -56 268 -65 70 -4 130 -6 133 -4 4 2 21 -1 39 -7 24 -9 45 -33 90 -103 107 -164 184 -249 260 -283 29 -13 162 -108 166 -118 4 -12 34 -269 38 -332 2 -23 14 -65 28 -95 102 -211 119 -250 120 -266 1 -9 -11 -41 -25 -71 -15 -30 -27 -63 -27 -72 0 -10 -4 -20 -8 -23 -24 -15 -80 -157 -91 -231 -10 -69 -31 -271 -31 -295 0 -9 -138 -106 -211 -149 -58 -33 -99 -78 -157 -168 -52 -80 -85 -128 -112 -164 -16 -22 -40 -26 -279 -48 -108 -10 -116 -13 -306 -107 -118 -58 -140 -58 -257 -2 -176 86 -236 108 -289 108 -39 0 -202 16 -264 26 -23 4 -38 17 -65 61 -48 77 -93 145 -105 161 -34 45 -100 112 -110 112 -6 0 -20 9 -30 20 -10 11 -23 20 -30 20 -7 0 -20 9 -30 20 -10 11 -42 34 -71 50 -28 17 -57 36 -63 44 -7 8 -16 67 -22 133 -19 220 -24 243 -76 354 -104 220 -106 226 -79 277 27 52 104 218 120 257 18 49 24 84 36 250 10 151 -2 133 159 234 95 60 183 140 213 195 7 13 39 61 71 108 58 86 96 116 135 106 26 -7 239 11 286 23 22 6 95 37 163 70 68 32 127 59 132 59 5 0 14 7 21 15 15 19 11 19 62 -7z m-958 -2672 c25 -36 55 -68 66 -71 11 -3 20 -10 20 -15 0 -30 179 -65 370 -72 37 -1 73 -11 112 -30 31 -15 61 -28 67 -28 19 0 22 -21 7 -52 -9 -17 -16 -34 -16 -39 0 -4 -23 -56 -51 -116 -28 -59 -69 -145 -90 -191 -21 -46 -39 -86 -39 -89 0 -4 -13 -34 -29 -67 -16 -34 -56 -122 -89 -196 -33 -74 -65 -136 -71 -138 -11 -4 -16 2 -111 104 -139 152 -163 174 -194 182 -35 10 -202 -2 -322 -22 -113 -19 -114 -17 -48 122 46 97 88 189 103 227 4 11 23 52 40 90 18 39 39 84 46 100 8 17 28 60 44 97 17 37 31 73 31 79 0 7 6 20 14 28 7 9 23 43 35 76 18 48 42 85 57 85 1 0 23 -29 48 -64z m1958 -49 c26 -58 60 -135 76 -169 66 -140 81 -174 87 -200 4 -15 13 -29 21 -32 8 -3 14 -16 14 -30 0 -14 4 -27 9 -30 4 -3 16 -27 26 -53 20 -54 78 -184 101 -225 30 -56 23 -61 -68 -54 -46 4 -99 11 -118 16 -33 8 -152 14 -211 11 -30 -1 -34 -5 -188 -169 -113 -121 -133 -133 -147 -89 -6 21 -27 67 -101 226 -19 40 -50 110 -70 155 -19 44 -40 90 -47 101 -7 11 -21 43 -31 70 -10 28 -42 100 -72 162 -29 62 -53 117 -53 122 0 6 29 25 64 41 56 27 86 33 215 45 216 21 231 24 281 57 25 16 67 59 93 94 27 36 54 63 60 61 7 -2 33 -51 59 -110z"/> <path d="M2043 4069 c-46 -4 -87 -10 -92 -13 -5 -4 -32 -11 -60 -16 -46 -9 -96 -28 -201 -79 -73 -35 -148 -92 -235 -178 -184 -181 -285 -423 -285 -683 0 -313 141 -590 400 -786 75 -57 129 -84 302 -152 79 -32 311 -38 473 -14 111 16 273 89 381 170 167 127 285 291 348 485 85 260 38 607 -110 818 -19 27 -34 53 -34 58 0 18 -178 189 -236 226 -112 72 -213 117 -299 135 -22 5 -58 13 -80 18 -62 15 -182 20 -272 11z m275 -263 c141 -38 232 -88 327 -181 98 -96 145 -167 187 -283 30 -83 32 -94 32 -237 0 -137 -2 -157 -27 -231 -15 -44 -38 -100 -52 -125 -13 -24 -29 -53 -34 -64 -22 -47 -243 -235 -276 -235 -5 0 -16 -6 -24 -13 -24 -21 -117 -47 -206 -58 -106 -14 -260 0 -340 30 -64 25 -136 63 -176 94 -26 19 -55 40 -66 46 -38 20 -131 146 -176 239 -62 125 -88 273 -68 390 7 42 14 88 15 102 4 42 44 129 102 220 47 75 125 158 183 194 21 14 42 30 46 36 3 5 13 10 22 10 9 0 24 6 32 13 14 12 67 30 191 65 68 19 212 14 308 -12z"/> <path d="M2350 3392 c-13 -9 -42 -37 -65 -62 -22 -24 -68 -74 -101 -110 -34 -36 -73 -78 -87 -95 l-25 -30 -44 50 c-99 113 -138 133 -204 102 -80 -39 -89 -124 -22 -215 64 -88 187 -221 221 -239 43 -22 96 -4 144 49 21 22 53 56 70 74 18 19 68 74 110 122 43 48 98 107 122 132 59 61 74 94 68 144 -8 57 -55 96 -117 95 -26 0 -56 -7 -70 -17z"/> </g> </svg> 