<?xml version="1.0" encoding="UTF-8"?>
<svg version="1.1" xmlns="http://www.w3.org/2000/svg" width="187" height="68">
<path d="M0 0 C61.71 0 123.42 0 187 0 C187 22.44 187 44.88 187 68 C125.29 68 63.58 68 0 68 C0 45.56 0 23.12 0 0 Z " fill="#FDFCFC" transform="translate(0,0)"/>
<path d="M0 0 C4.09246782 3.27397426 6.79721926 6.87186505 8 12 C8.69301974 18.89222369 8.76012394 25.952935 5 32 C1.31019929 36.14572437 -3.12296404 38.67325698 -8.6484375 39.30078125 C-15.09522737 39.32848952 -20.49344152 39.25408627 -25.46484375 34.640625 C-31.08697717 28.31776191 -31.69239044 21.93577963 -31.44921875 13.75 C-30.79741325 8.30884104 -28.8169489 4.8620665 -25 1 C-17.5372593 -4.68589768 -8.06864135 -4.31135557 0 0 Z " fill="#E01D3B" transform="translate(96,16)"/>
<path d="M0 0 C3.50625 -0.061875 7.0125 -0.12375 10.625 -0.1875 C11.71893066 -0.21481201 12.81286133 -0.24212402 13.93994141 -0.27026367 C19.38036273 -0.31667343 23.33586987 -0.14191403 28 3 C33.95050895 9.28109278 34.44321428 15.15931133 34.3203125 23.54296875 C33.78224737 29.35013504 31.67709933 32.94420082 28.0625 37.375 C24.2637465 40.3679573 20.69831378 41.25396704 15.91796875 41.1953125 C14.65762817 41.18781982 14.65762817 41.18781982 13.37182617 41.18017578 C12.32099854 41.16196777 11.2701709 41.14375977 10.1875 41.125 C6.825625 41.08375 3.46375 41.0425 0 41 C0 27.47 0 13.94 0 0 Z " fill="#E01E3D" transform="translate(129,14)"/>
<path d="M0 0 C2.97 0 5.94 0 9 0 C11.97 8.91 14.94 17.82 18 27 C19.58487192 23.83025616 20.79839599 20.90788262 21.9453125 17.578125 C22.29980469 16.55332031 22.65429688 15.52851563 23.01953125 14.47265625 C23.38433594 13.40917969 23.74914062 12.34570312 24.125 11.25 C24.49753906 10.17105469 24.87007812 9.09210937 25.25390625 7.98046875 C26.1717251 5.32114748 27.08699437 2.6609768 28 0 C30.97 0 33.94 0 37 0 C35.65378081 4.2332824 34.30265809 8.4649608 32.94726562 12.6953125 C32.48828207 14.13011824 32.03056573 15.56533007 31.57421875 17.00097656 C28.9912156 25.12384174 26.29556064 33.13069399 23 41 C20.03 41 17.06 41 14 41 C10.705873 32.92631022 7.68993563 24.77124468 4.75 16.5625 C4.28650743 15.2844874 3.82296605 14.0064925 3.359375 12.72851562 C2.92625 11.52001953 2.493125 10.31152344 2.046875 9.06640625 C1.65338867 7.97271729 1.25990234 6.87902832 0.85449219 5.75219727 C0 3 0 3 0 0 Z " fill="#E0213E" transform="translate(26,14)"/>
<path d="M0 0 C3.53556016 0.50265951 5.15821996 1.63173385 7.4453125 4.34765625 C9.48758311 8.7239504 9.94085803 12.55738279 9.4453125 17.34765625 C7.81635614 21.76910924 6.41678699 24.70000659 2.4453125 27.34765625 C-0.62062765 27.89309504 -3.48687272 27.88142367 -6.5546875 27.34765625 C-9.92244314 24.76809874 -11.93549775 22.23229132 -13.5546875 18.34765625 C-14.12827494 13.7664059 -14.13663157 9.6501025 -12.2421875 5.41015625 C-11.6853125 4.72953125 -11.1284375 4.04890625 -10.5546875 3.34765625 C-9.91080078 2.55488281 -9.91080078 2.55488281 -9.25390625 1.74609375 C-6.40570474 -0.59794336 -3.54930431 -0.119 0 0 Z " fill="#FCF8F9" transform="translate(86.5546875,20.65234375)"/>
<path d="M0 0 C12 0 12 0 15.22265625 1.99609375 C17.44968857 5.7600231 17.63596267 8.81695536 17.4375 13.0625 C17.43169922 13.76955078 17.42589844 14.47660156 17.41992188 15.20507812 C17.33364627 18.880419 17.24868158 22.00415266 15 25 C11 27 11 27 0 27 C0 18.09 0 9.18 0 0 Z " fill="#FDF9FA" transform="translate(137,21)"/>
<path d="M0 0 C2.64 0 5.28 0 8 0 C8 13.53 8 27.06 8 41 C5.36 41 2.72 41 0 41 C0 27.47 0 13.94 0 0 Z " fill="#E0213E" transform="translate(112,14)"/>
<path d="M0 0 C4.99275057 1.27721526 7.57611908 3.17330957 11 7 C9.1875 10 9.1875 10 7 13 C6.01 13 5.02 13 4 13 C3.278125 12.195625 2.55625 11.39125 1.8125 10.5625 C-1.9133615 7.16782619 -4.06074318 7.25114865 -9 7 C-6.06171403 4.49701566 -3.82097239 3.53069061 0 3 C0 2.01 0 1.02 0 0 Z " fill="#DF2844" transform="translate(90,14)"/>
<path d="M0 0 C2.64 0 5.28 0 8 0 C7.34 1.98 6.68 3.96 6 6 C5.7525 5.38125 5.505 4.7625 5.25 4.125 C3.79371361 1.64931313 2.62187494 1.04874998 0 0 Z " fill="#D70D33" transform="translate(55,14)"/>
</svg>
